<?xml version="1.0" encoding="UTF-8"?>
<!DOCTYPE svg PUBLIC "-//W3C//DTD SVG 1.1//EN" "http://www.w3.org/Graphics/SVG/1.1/DTD/svg11.dtd">
<svg xmlns="http://www.w3.org/2000/svg" version="1.1" width="512px" height="512px" style="shape-rendering:geometricPrecision; text-rendering:geometricPrecision; image-rendering:optimizeQuality; fill-rule:evenodd; clip-rule:evenodd" xmlns:xlink="http://www.w3.org/1999/xlink">
<g><path style="opacity:0.995" fill="#fee466" d="M 237.5,-0.5 C 243.5,-0.5 249.5,-0.5 255.5,-0.5C 255.5,32.8333 255.5,66.1667 255.5,99.5C 255.5,101.5 255.5,103.5 255.5,105.5C 245.21,144.658 235.21,183.992 225.5,223.5C 226.137,234.974 232.137,240.141 243.5,239C 249.211,238.118 252.878,234.951 254.5,229.5C 255.499,272.663 255.832,315.997 255.5,359.5C 229.833,359.5 204.167,359.5 178.5,359.5C 175.299,337.766 167.133,318.099 154,300.5C 141.756,284.344 129.756,268.011 118,251.5C 87.6098,205.469 81.9431,156.469 101,104.5C 126.957,44.1037 172.457,9.10367 237.5,-0.5 Z"/></g>
<g><path style="opacity:1" fill="#fec24d" d="M 255.5,-0.5 C 261.5,-0.5 267.5,-0.5 273.5,-0.5C 338.54,9.10279 384.04,44.1028 410,104.5C 429.057,156.469 423.39,205.469 393,251.5C 376.929,272.64 361.596,294.307 347,316.5C 339.297,329.898 334.463,344.231 332.5,359.5C 306.833,359.5 281.167,359.5 255.5,359.5C 255.832,315.997 255.499,272.663 254.5,229.5C 255.038,227.883 255.371,226.216 255.5,224.5C 266.179,184.619 276.179,144.452 285.5,104C 283.445,92.9585 276.778,88.2919 265.5,90C 260.98,92.0223 257.647,95.189 255.5,99.5C 255.5,66.1667 255.5,32.8333 255.5,-0.5 Z"/></g>
<g><path style="opacity:1" fill="#2a2966" d="M 255.5,224.5 C 255.5,184.833 255.5,145.167 255.5,105.5C 255.5,103.5 255.5,101.5 255.5,99.5C 257.647,95.189 260.98,92.0223 265.5,90C 276.778,88.2919 283.445,92.9585 285.5,104C 276.179,144.452 266.179,184.619 255.5,224.5 Z"/></g>
<g><path style="opacity:1" fill="#4e4d98" d="M 255.5,105.5 C 255.5,145.167 255.5,184.833 255.5,224.5C 255.371,226.216 255.038,227.883 254.5,229.5C 252.878,234.951 249.211,238.118 243.5,239C 232.137,240.141 226.137,234.974 225.5,223.5C 235.21,183.992 245.21,144.658 255.5,105.5 Z"/></g>
<g><path style="opacity:1" fill="#504e98" d="M 191.5,119.5 C 202.385,118.589 208.718,123.422 210.5,134C 210.135,137.763 208.968,141.263 207,144.5C 200.319,151.014 193.819,157.681 187.5,164.5C 193.819,171.319 200.319,177.986 207,184.5C 212.755,194.215 210.922,202.049 201.5,208C 195.811,210.33 190.477,209.664 185.5,206C 175,195.5 164.5,185 154,174.5C 149.421,167.803 149.421,161.136 154,154.5C 164.5,144 175,133.5 185.5,123C 187.727,122.059 189.727,120.892 191.5,119.5 Z"/></g>
<g><path style="opacity:1" fill="#2d2a65" d="M 311.5,119.5 C 316.548,119.127 321.215,120.294 325.5,123C 336,133.5 346.5,144 357,154.5C 361.579,161.136 361.579,167.803 357,174.5C 346.5,185 336,195.5 325.5,206C 317.907,211.056 310.741,210.556 304,204.5C 299.421,197.803 299.421,191.136 304,184.5C 310.681,177.986 317.181,171.319 323.5,164.5C 317.181,157.681 310.681,151.014 304,144.5C 297.874,133.449 300.374,125.116 311.5,119.5 Z"/></g>
<g><path style="opacity:0.995" fill="#e6f7ff" d="M 178.5,359.5 C 204.167,359.5 229.833,359.5 255.5,359.5C 255.5,369.5 255.5,379.5 255.5,389.5C 230.5,389.5 205.5,389.5 180.5,389.5C 173.492,389.666 166.492,389.5 159.5,389C 150.525,383.848 148.025,376.348 152,366.5C 153.167,364 155,362.167 157.5,361C 164.385,359.575 171.385,359.075 178.5,359.5 Z"/></g>
<g><path style="opacity:1" fill="#cce6ff" d="M 255.5,359.5 C 281.167,359.5 306.833,359.5 332.5,359.5C 339.615,359.075 346.615,359.575 353.5,361C 358.592,364.017 360.926,368.517 360.5,374.5C 360.926,380.483 358.592,384.983 353.5,388C 345.946,389.432 338.279,389.932 330.5,389.5C 305.5,389.5 280.5,389.5 255.5,389.5C 255.5,379.5 255.5,369.5 255.5,359.5 Z"/></g>
<g><path style="opacity:1" fill="#cbe6fe" d="M 180.5,389.5 C 205.5,389.5 230.5,389.5 255.5,389.5C 255.5,400.167 255.5,410.833 255.5,421.5C 230.5,421.5 205.5,421.5 180.5,421.5C 180.5,410.833 180.5,400.167 180.5,389.5 Z"/></g>
<g><path style="opacity:1" fill="#b4c9f1" d="M 255.5,389.5 C 280.5,389.5 305.5,389.5 330.5,389.5C 330.5,400.167 330.5,410.833 330.5,421.5C 305.5,421.5 280.5,421.5 255.5,421.5C 255.5,410.833 255.5,400.167 255.5,389.5 Z"/></g>
<g><path style="opacity:0.995" fill="#e6f7ff" d="M 180.5,421.5 C 205.5,421.5 230.5,421.5 255.5,421.5C 255.5,431.5 255.5,441.5 255.5,451.5C 230.5,451.5 205.5,451.5 180.5,451.5C 173.492,451.666 166.492,451.5 159.5,451C 150.525,445.848 148.025,438.348 152,428.5C 153.167,426 155,424.167 157.5,423C 165.054,421.568 172.721,421.068 180.5,421.5 Z"/></g>
<g><path style="opacity:1" fill="#cce6ff" d="M 255.5,421.5 C 280.5,421.5 305.5,421.5 330.5,421.5C 337.508,421.334 344.508,421.5 351.5,422C 360.475,427.152 362.975,434.652 359,444.5C 357.833,447 356,448.833 353.5,450C 345.946,451.432 338.279,451.932 330.5,451.5C 305.5,451.5 280.5,451.5 255.5,451.5C 255.5,441.5 255.5,431.5 255.5,421.5 Z"/></g>
<g><path style="opacity:0.994" fill="#cbe6ff" d="M 180.5,451.5 C 205.5,451.5 230.5,451.5 255.5,451.5C 255.5,471.5 255.5,491.5 255.5,511.5C 242.167,511.5 228.833,511.5 215.5,511.5C 187.469,501.479 175.802,481.479 180.5,451.5 Z"/></g>
<g><path style="opacity:1" fill="#b5c9f2" d="M 255.5,451.5 C 280.5,451.5 305.5,451.5 330.5,451.5C 335.193,481.491 323.526,501.491 295.5,511.5C 282.167,511.5 268.833,511.5 255.5,511.5C 255.5,491.5 255.5,471.5 255.5,451.5 Z"/></g>
</svg>
